<svg viewBox="0 0 869.3478393554688 400" xmlns="http://www.w3.org/2000/svg"><g><g><g><g><g><line x1="68.3125" y1="377.828125" x2="63.3125" y2="377.828125" style="visibility: inherit;" fill="rgb(0, 0, 0)" stroke="rgb(204, 204, 204)" stroke-width="0.8695652484893799px"></line><line x1="68.3125" y1="330.599609375" x2="63.3125" y2="330.599609375" style="visibility: inherit;" fill="rgb(0, 0, 0)" stroke="rgb(204, 204, 204)" stroke-width="0.8695652484893799px"></line><line x1="68.3125" y1="283.37109375" x2="63.3125" y2="283.37109375" style="visibility: inherit;" fill="rgb(0, 0, 0)" stroke="rgb(204, 204, 204)" stroke-width="0.8695652484893799px"></line><line x1="68.3125" y1="236.142578125" x2="63.3125" y2="236.142578125" style="visibility: inherit;" fill="rgb(0, 0, 0)" stroke="rgb(204, 204, 204)" stroke-width="0.8695652484893799px"></line><line x1="68.3125" y1="188.9140625" x2="63.3125" y2="188.9140625" style="visibility: inherit;" fill="rgb(0, 0, 0)" stroke="rgb(204, 204, 204)" stroke-width="0.8695652484893799px"></line><line x1="68.3125" y1="141.685546875" x2="63.3125" y2="141.685546875" style="visibility: inherit;" fill="rgb(0, 0, 0)" stroke="rgb(204, 204, 204)" stroke-width="0.8695652484893799px"></line><line x1="68.3125" y1="94.45703125" x2="63.3125" y2="94.45703125" style="visibility: inherit;" fill="rgb(0, 0, 0)" stroke="rgb(204, 204, 204)" stroke-width="0.8695652484893799px"></line><line x1="68.3125" y1="47.228515625" x2="63.3125" y2="47.228515625" style="visibility: inherit;" fill="rgb(0, 0, 0)" stroke="rgb(204, 204, 204)" stroke-width="0.8695652484893799px"></line><line x1="68.3125" y1="0" x2="63.3125" y2="0" style="visibility: inherit;" fill="rgb(0, 0, 0)" stroke="rgb(204, 204, 204)" stroke-width="0.8695652484893799px"></line></g><g transform="translate(58.3125, 0)"><text style="text-anchor: end; visibility: hidden; font-family: &quot;Helvetica Neue&quot;, sans-serif; font-size: 10.434782981872559px; font-weight: 200;" x="0" y="377.828125" dx="0em" dy="0.3em" fill="rgb(50, 49, 63)" stroke="none" stroke-width="0.8695652484893799px">-200</text><text style="text-anchor: end; visibility: inherit; font-family: &quot;Helvetica Neue&quot;, sans-serif; font-size: 10.434782981872559px; font-weight: 200;" x="0" y="330.599609375" dx="0em" dy="0.3em" fill="rgb(50, 49, 63)" stroke="none" stroke-width="0.8695652484893799px">0</text><text style="text-anchor: end; visibility: inherit; font-family: &quot;Helvetica Neue&quot;, sans-serif; font-size: 10.434782981872559px; font-weight: 200;" x="0" y="283.37109375" dx="0em" dy="0.3em" fill="rgb(50, 49, 63)" stroke="none" stroke-width="0.8695652484893799px">200</text><text style="text-anchor: end; visibility: inherit; font-family: &quot;Helvetica Neue&quot;, sans-serif; font-size: 10.434782981872559px; font-weight: 200;" x="0" y="236.142578125" dx="0em" dy="0.3em" fill="rgb(50, 49, 63)" stroke="none" stroke-width="0.8695652484893799px">400</text><text style="text-anchor: end; visibility: inherit; font-family: &quot;Helvetica Neue&quot;, sans-serif; font-size: 10.434782981872559px; font-weight: 200;" x="0" y="188.9140625" dx="0em" dy="0.3em" fill="rgb(50, 49, 63)" stroke="none" stroke-width="0.8695652484893799px">600</text><text style="text-anchor: end; visibility: inherit; font-family: &quot;Helvetica Neue&quot;, sans-serif; font-size: 10.434782981872559px; font-weight: 200;" x="0" y="141.685546875" dx="0em" dy="0.3em" fill="rgb(50, 49, 63)" stroke="none" stroke-width="0.8695652484893799px">800</text><text style="text-anchor: end; visibility: inherit; font-family: &quot;Helvetica Neue&quot;, sans-serif; font-size: 10.434782981872559px; font-weight: 200;" x="0" y="94.45703125" dx="0em" dy="0.3em" fill="rgb(50, 49, 63)" stroke="none" stroke-width="0.8695652484893799px">1e+3</text><text style="text-anchor: end; visibility: inherit; font-family: &quot;Helvetica Neue&quot;, sans-serif; font-size: 10.434782981872559px; font-weight: 200;" x="0" y="47.228515625" dx="0em" dy="0.3em" fill="rgb(50, 49, 63)" stroke="none" stroke-width="0.8695652484893799px">1.2e+3</text><text style="text-anchor: end; visibility: hidden; font-family: &quot;Helvetica Neue&quot;, sans-serif; font-size: 10.434782981872559px; font-weight: 200;" x="0" y="0" dx="0em" dy="0.3em" fill="rgb(50, 49, 63)" stroke="none" stroke-width="0.8695652484893799px">1.4e+3</text></g><line x1="68.3125" y1="0" x2="68.3125" y2="377.828125" fill="rgb(0, 0, 0)" stroke="rgb(204, 204, 204)" stroke-width="0.8695652484893799px"></line></g></g><g transform="translate(68, 0)" clip-path="url(#clip_0)"><clipPath id="clip_0"><rect width="801" height="377"></rect></clipPath><g><g><g><line x1="0" y1="0" x2="0" y2="377.828125" fill="rgb(0, 0, 0)" stroke="rgb(60, 60, 60)" stroke-width="0.8695652484893799px" opacity="0.25"></line><line x1="100.1294174194336" y1="0" x2="100.1294174194336" y2="377.828125" fill="rgb(0, 0, 0)" stroke="rgb(60, 60, 60)" stroke-width="0.8695652484893799px" opacity="0.25"></line><line x1="200.2588348388672" y1="0" x2="200.2588348388672" y2="377.828125" fill="rgb(0, 0, 0)" stroke="rgb(60, 60, 60)" stroke-width="0.8695652484893799px" opacity="0.25"></line><line x1="300.3882522583008" y1="0" x2="300.3882522583008" y2="377.828125" fill="rgb(0, 0, 0)" stroke="rgb(60, 60, 60)" stroke-width="0.8695652484893799px" opacity="0.25"></line><line x1="400.5176696777344" y1="0" x2="400.5176696777344" y2="377.828125" fill="rgb(0, 0, 0)" stroke="rgb(60, 60, 60)" stroke-width="0.8695652484893799px" opacity="0.25"></line><line x1="500.64708709716797" y1="0" x2="500.64708709716797" y2="377.828125" fill="rgb(0, 0, 0)" stroke="rgb(60, 60, 60)" stroke-width="0.8695652484893799px" opacity="0.25"></line><line x1="600.7765045166016" y1="0" x2="600.7765045166016" y2="377.828125" fill="rgb(0, 0, 0)" stroke="rgb(60, 60, 60)" stroke-width="0.8695652484893799px" opacity="0.25"></line><line x1="700.9059219360352" y1="0" x2="700.9059219360352" y2="377.828125" fill="rgb(0, 0, 0)" stroke="rgb(60, 60, 60)" stroke-width="0.8695652484893799px" opacity="0.25"></line><line x1="801.0353393554688" y1="0" x2="801.0353393554688" y2="377.828125" fill="rgb(0, 0, 0)" stroke="rgb(60, 60, 60)" stroke-width="0.8695652484893799px" opacity="0.25"></line></g><g><line x1="0" y1="377.828125" x2="801.0353393554688" y2="377.828125" fill="rgb(0, 0, 0)" stroke="rgb(60, 60, 60)" stroke-width="0.8695652484893799px" opacity="0.25"></line><line x1="0" y1="330.599609375" x2="801.0353393554688" y2="330.599609375" fill="rgb(0, 0, 0)" stroke="rgb(60, 60, 60)" stroke-width="0.8695652484893799px" opacity="0.25"></line><line x1="0" y1="283.37109375" x2="801.0353393554688" y2="283.37109375" fill="rgb(0, 0, 0)" stroke="rgb(60, 60, 60)" stroke-width="0.8695652484893799px" opacity="0.25"></line><line x1="0" y1="236.142578125" x2="801.0353393554688" y2="236.142578125" fill="rgb(0, 0, 0)" stroke="rgb(60, 60, 60)" stroke-width="0.8695652484893799px" opacity="0.25"></line><line x1="0" y1="188.9140625" x2="801.0353393554688" y2="188.9140625" fill="rgb(0, 0, 0)" stroke="rgb(60, 60, 60)" stroke-width="0.8695652484893799px" opacity="0.25"></line><line x1="0" y1="141.685546875" x2="801.0353393554688" y2="141.685546875" fill="rgb(0, 0, 0)" stroke="rgb(60, 60, 60)" stroke-width="0.8695652484893799px" opacity="0.25"></line><line x1="0" y1="94.45703125" x2="801.0353393554688" y2="94.45703125" fill="rgb(0, 0, 0)" stroke="rgb(60, 60, 60)" stroke-width="0.8695652484893799px" opacity="0.25"></line><line x1="0" y1="47.228515625" x2="801.0353393554688" y2="47.228515625" fill="rgb(0, 0, 0)" stroke="rgb(60, 60, 60)" stroke-width="0.8695652484893799px" opacity="0.25"></line><line x1="0" y1="0" x2="801.0353393554688" y2="0" fill="rgb(0, 0, 0)" stroke="rgb(60, 60, 60)" stroke-width="0.8695652484893799px" opacity="0.25"></line></g></g></g><g><g><line x1="0" y1="330.599609375" x2="801.0353393554688" y2="330.599609375" fill="rgb(0, 0, 0)" stroke="rgb(153, 153, 153)" stroke-width="1.3043478727340698px"></line></g></g><g><g><line x1="100.1294174194336" y1="0" x2="100.1294174194336" y2="377.828125" fill="rgb(0, 0, 0)" stroke="rgb(153, 153, 153)" stroke-width="1.3043478727340698px"></line></g></g><g><g><g><g><g><path style="fill: none;" stroke="rgb(238, 51, 119)" stroke-width="1.7391304969787598px" d="M102.13200576782226,329.87011146858566L104.13459411621093,328.7503628549035L106.13718246459962,326.0184269832022L108.13977081298829,317.92370140389363L110.14235916137696,313.79488578918733L112.14494750976563,311.53312857812375L114.14753585815428,309.4441752569004L116.15012420654296,308.22886809430736L120.15530090332031,307.5128807878896L118.15271255493164,307.08793441825526L122.15788925170898,306.8346170567424L124.16047760009765,306.68321610083814L126.16306594848633,306.59258672596866L128.165654296875,306.538284916141L130.1682426452637,306.5057310770774L132.17083099365234,306.4862085724525L134.17341934204103,306.47449859508265L136.17600769042969,306.4674738773387L138.17859603881834,306.4632595033154L140.18118438720703,306.4607310432639L142.1837727355957,306.4592140263988L144.18636108398437,306.45830383757834L146.18894943237305,306.4577577319534L148.1915377807617,306.45743007133865L150.1941261291504,306.4572334759634L152.19671447753908,306.457115519096L154.19930282592773,306.4570447451043L156.20189117431642,306.45700228075566L158.20447952270507,306.4569768021632L160.20706787109376,306.4569615150137L162.20965621948244,306.45695234272614L164.2122445678711,306.45694683935443L166.21483291625975,306.45694353733165L168.21742126464844,306.45694155611807L170.2200096130371,306.45694036738996L172.22259796142578,306.45693965415313L174.22518630981446,306.45693922621103L176.22777465820312,306.4569389694458L178.2303630065918,306.4569388153866L180.2329513549805,306.4569387229511L182.23553970336914,306.45693866748985L184.23812805175783,306.4569386342131L186.24071640014648,306.45693861424695L188.24330474853514,306.45693860226737L190.24589309692382,306.4569385950796L192.2484814453125,306.4569385907669L194.25106979370116,306.4569385881793L196.25365814208985,306.45693858662673L198.2562464904785,306.4569385856952L200.2588348388672,306.4569385851363L202.26142318725587,306.4569385848009L204.26401153564453,306.4569385845997L206.2665998840332,306.45693858447896L208.26918823242187,306.45693858440654L210.27177658081055,306.45693858436306L212.27436492919924,306.456938584337L214.2769532775879,306.4569385843214L216.27954162597658,306.45693858431196L218.28212997436526,306.4569385843064L220.28471832275392,306.456938584303L222.2873066711426,306.45693858430093L224.28989501953126,306.45693858429973L226.2924833679199,306.456938584299L228.29507171630857,306.45693858429854L230.29766006469725,306.4569385842983L232.3002484130859,306.45693858429814L234.3028367614746,306.45693858429803L236.30542510986328,303.4057931415738L238.30801345825193,301.5751058759392L240.31060180664062,300.47669351655844L242.3131901550293,299.81764610093L244.31577850341796,299.4222176515529L246.31836685180664,299.1849605819267L248.3209552001953,299.04260634015094L250.32354354858398,298.9571937950855L252.32613189697267,298.90594626804625L254.32872024536132,298.87519775182267L256.33130859375,298.8567486420885L258.33389694213867,298.84567917624804L260.3364852905274,298.83903749674374L262.33907363891603,298.1268697756518L264.3416619873047,297.6995691429966L266.34425033569335,297.4431887634035L268.34683868408206,297.28936053564763L270.3494270324707,297.19706359899413L272.35201538085937,297.141685437002L274.3546037292481,297.10845853980675L276.3571920776367,297.08852240148957L278.3597804260254,297.0765607184993L280.36236877441405,297.0693837087051L282.3649571228027,297.0650775028286L284.3675454711914,297.0624937793027L286.3701338195801,297.0609435451871L288.37272216796873,297.06001340471784L290.3753105163574,297.0594553204362L292.3778988647461,297.05912046986725L294.38048721313476,297.0589195595259L296.3830755615234,297.05879901332105L298.3856639099121,297.0587266855982L300.3882522583008,297.05868328896446L302.39084060668944,297.0586572509842L304.39342895507815,297.058641628196L306.3960173034668,297.05863225452316L308.39860565185546,297.05862663031945L310.4011940002442,285.93984045220213L312.40378234863283,279.2685687453318L314.4063706970215,275.2658057212095L316.40895904541014,272.8641479067362L318.41154739379886,271.42315321805216L320.4141357421875,270.55855640484174L322.41672409057617,270.0397983169155L324.4193124389649,269.72854346415977L326.4219007873535,269.5417905525063L328.4244891357422,269.42973880551426L330.42707748413085,269.362507757319L332.4296658325195,269.3221691284019L334.4322541809082,269.2979659510516L336.4348425292969,269.28344404464144L338.43743087768553,269.2747309007953L340.4400192260742,269.26950301448767L342.4426075744629,269.2663662827031L344.44519592285155,269.2644842436323L346.4477842712402,269.26335502018986L348.4503726196289,269.2626774861244L350.4529609680176,269.2622709656851L352.45554931640623,269.26202705342155L354.45813766479495,269.2618807060634L356.4607260131836,269.2617928976485L358.46331436157226,269.26174021259953L360.465902709961,269.2617086015702L362.4684910583496,269.2616896349526L364.4710794067383,269.26167825498203L366.47366775512694,269.26167142699967L368.47625610351565,269.26166733021023L370.4788444519043,269.26166487213663L372.48143280029296,269.2616633972924L374.4840211486817,269.26166251238595L376.4866094970703,269.261661981442L378.489197845459,269.26166166287567L380.49178619384764,269.26166147173586L382.4943745422363,269.261661357052L384.496962890625,269.26166128824167L386.49955123901367,269.26166124695544L388.5021395874023,269.26166122218376L390.504727935791,269.2616612073207L392.5073162841797,269.2616611984029L394.50990463256835,269.2616611930522L396.512492980957,269.2616611898418L398.5150813293457,269.26166118791554L400.5176696777344,199.38301361901077L402.52025802612303,157.4558250776679L404.52284637451174,129.47695091150706L406.52543472290034,112.6896264118106L408.52802307128906,102.61723171199264L410.5306114196777,95.77314702394546L412.5331997680664,91.6666962111172L414.535788116455,89.20282572342023L416.53837646484374,87.72450343080197L418.5409648132324,86.83751005523106L420.5435531616211,86.30531402988856L422.54614151000976,85.98599641468297L424.5487298583985,85.79440584555965L426.5513182067871,85.67945150408565L428.5539065551758,85.61047889920127L430.55649490356444,85.5690953362706L432.55908325195315,85.54426519851228L434.5616716003418,85.52936711585727L436.5642599487305,85.52042826626422L438.5668482971191,85.51506495650841L440.56943664550784,85.51184697065491L442.5720249938965,85.50991617914286L444.5746133422852,85.50875770423562L446.5772016906738,85.50806261929125L448.5797900390625,85.50764556832462L450.5823783874512,85.5073953377447L452.5849667358398,85.50724519939666L454.58755508422854,85.50715511638788L456.59014343261714,85.50710106658266L458.59273178100585,85.50706863669944L460.5953201293945,85.50704917876959L462.5979084777832,85.50703750401158L464.6004968261718,85.50703049915683L466.60308517456053,85.50702629624402L468.6056735229492,85.50702377449625L470.6082618713379,85.50702226144767L472.61085021972656,85.50702135361843L474.61343856811527,85.50702080892091L476.61602691650387,85.5070204821024L478.6186152648926,85.50702028601131L480.62120361328124,85.50702016835663L482.62379196166995,85.50702009776387L484.6263803100586,85.50702005540819L486.6289686584473,85.5070200299948L488.6315570068359,85.50702001474673L490.63414535522463,85.50702000559795L492.6367337036133,85.50702000010864L494.639322052002,85.50701999681507L496.6419104003906,85.50701999483891L498.6444987487793,85.50701999365322L500.64708709716797,85.50701999294176L502.6496754455566,85.50701999251493L504.65226379394534,85.50701999225879L506.65485214233394,85.50701999210514L508.65744049072265,85.50701999201294L510.6600288391113,85.50701999195763L512.6626171875,85.50701999192444L514.6652055358886,85.50701999190454L516.6677938842773,85.5070199918926L518.670382232666,85.50701999188544L520.6729705810548,85.50701999188112L522.6755589294434,85.50701999187856L524.6781472778321,85.50701999187703L526.6807356262207,85.50701999187606L528.6833239746094,85.50701999187555L530.685912322998,85.50701999187527L532.6885006713867,85.50701999187498L534.6910890197754,85.50701999187493L536.6936773681641,85.50701999187481L538.6962657165527,85.50701999187476L540.6988540649414,85.50701999187476L542.70144241333,85.50701999187476L544.7040307617187,85.50701999187476L546.7066191101075,85.50701999187476L548.7092074584962,85.50701999187476L550.7117958068848,85.50701999187476L552.7143841552734,85.50701999187476L554.7169725036621,85.50701999187476L556.7195608520508,85.50701999187476L558.7221492004395,85.50701999187476L560.7247375488281,85.50701999187476L562.7273258972168,85.50701999187476L564.7299142456054,85.50701999187476L566.7325025939941,85.50701999187476L568.7350909423828,85.50701999187476L570.7376792907716,85.50701999187476L572.7402676391602,85.50701999187476L574.7428559875489,85.50701999187476L576.7454443359375,85.50701999187476L578.7480326843262,85.50701999187476L580.7506210327148,85.50701999187476L582.7532093811035,85.50701999187476L584.7557977294922,85.50701999187476L586.7583860778809,85.50701999187476L588.7609744262695,78.1507520585061L590.7635627746582,73.73699129848484L592.7661511230468,71.08873484247215L594.7687394714355,69.49978096886446L596.7713278198243,68.54640864469991L598.773916168213,67.97438525020112L600.7765045166016,67.63117121350189L602.7790928649902,67.42524279148233L604.7816812133789,67.30168573827063L606.7842695617676,67.22755150634356L608.7868579101563,67.18307096718735L610.7894462585449,67.15638264369363L612.7920346069336,67.14036964959735L614.7946229553222,67.13076185313969L616.7972113037109,67.12499717526498L618.7997996520996,67.1215383685402L620.8023880004883,67.11946308450536L622.804976348877,67.11821791408443L624.8075646972657,67.11747081183182L626.8101530456543,67.11702255048027L628.812741394043,67.11675359366933L630.8153297424316,67.1165922195828L632.8179180908203,67.11649539513087L634.820506439209,67.11643730045967L636.8230947875977,67.11640244365702L638.8256831359863,67.11638152957539L640.828271484375,67.11636898112641L642.8308598327636,67.11636145205705L644.8334481811523,67.1163569346154L646.836036529541,67.11635422415043L648.8386248779298,67.11635259787147L650.8412132263184,67.1163516221041L652.843801574707,67.11635103664366L654.8463899230957,67.11635068536742L656.8489782714844,67.11635047460163L658.8515666198731,67.11635034814219L660.8541549682617,67.11635027226646L662.8567433166504,67.11635022674108L664.859331665039,67.11635019942582L666.8619200134277,67.11635018303673L668.8645083618164,67.11635017320322L670.8670967102051,67.11635016730315L672.8696850585937,67.11635016376306L674.8722734069825,67.11635016163905L676.8748617553711,67.11635016036468L678.8774501037598,67.11635015959996L680.8800384521484,67.11635015914112L682.8826268005371,67.11635015886588L684.8852151489258,67.11635015870075L686.8878034973145,67.11635015860162L688.8903918457031,67.11635015854216L690.8929801940918,67.11635015850646L692.8955685424804,67.11635015848509L694.8981568908691,67.11635015847224L696.9007452392578,67.11635015846457L698.9033335876466,67.11635015845997L700.9059219360352,67.11635015845718" fill="none"></path></g><g><path style="fill: none;" stroke="rgb(0, 119, 187)" stroke-width="1.7391304969787598px" d="M102.13200576782226,329.0058408725355L104.13459411621093,329.0058408725355L106.13718246459962,328.94706251566544L108.13977081298829,328.92113088763455L110.14235916137696,326.7896285871859L120.15530090332031,325.62199574805726L122.15788925170898,324.9572854892207L124.16047760009765,324.57057165966506L126.16306594848633,324.34274267807064L128.165654296875,324.20752366265197L130.1682426452637,324.126917434055L132.17083099365234,324.078741264887L112.14494750976563,324.04990276734105L114.14753585815428,324.03262379336917L116.15012420654296,324.02226507899763L118.15271255493164,324.016052968382L134.17341934204103,324.0123268238055L136.17600769042969,324.0100915407561L138.17859603881834,324.0087505162251L140.18118438720703,324.00794595380705L142.1837727355957,324.00746323518297L144.18636108398437,324.00717361078574L146.18894943237305,324.0069998385872L148.1915377807617,324.00689557614635L150.1941261291504,324.00683301899807L152.19671447753908,324.0067954848229L154.19930282592773,324.0067729643588L156.20189117431642,324.006759452095L158.20447952270507,324.0067513447421L160.20706787109376,324.00674648033225L162.20965621948244,324.0067435616871L164.2122445678711,324.00674181050016L166.21483291625975,324.00674075978816L168.21742126464844,324.00674012936094L170.2200096130371,324.00673975110465L172.22259796142578,324.0067395241509L174.22518630981446,324.0067393879786L176.22777465820312,324.0067393062752L178.2303630065918,324.00673925725323L180.2329513549805,324.00673922784L182.23553970336914,324.0067392101921L184.23812805175783,324.0067391996033L186.24071640014648,324.0067391932501L188.24330474853514,324.0067391894381L190.24589309692382,324.00673918715097L192.2484814453125,324.00673918577866L194.25106979370116,324.0067391849553L196.25365814208985,324.00673918446125L198.2562464904785,324.0067391841648L200.2588348388672,324.00673918398695L202.26142318725587,324.00673918388026L204.26401153564453,324.00673918381625L206.2665998840332,324.0067391837778L208.26918823242187,324.0067391837548L210.27177658081055,324.00673918374093L212.27436492919924,324.00673918373263L214.2769532775879,324.0067391837277L216.27954162597658,324.0067391837247L218.28212997436526,324.00673918372286L220.28471832275392,324.00673918372183L222.2873066711426,324.00673918372115L224.28989501953126,324.00673918372075L226.2924833679199,324.0067391837206L228.29507171630857,324.0067391837204L230.29766006469725,321.6340555889943L232.3002484130859,320.2104454321586L234.3028367614746,319.3562793380572L236.30542510986328,318.8437796815964L238.30801345825193,318.5362798877199L240.31060180664062,318.351780011394L242.3131901550293,318.24108008559847L244.31577850341796,318.17466013012114L246.31836685180664,318.13480815683477L248.3209552001953,318.11089697286286L250.32354354858398,318.0965502624798L252.32613189697267,318.08794223624994L254.32872024536132,318.082777420512L256.33130859375,305.1978875819631L258.33389694213867,297.46695367883365L260.3364852905274,292.828393336956L262.33907363891603,290.0452571318295L264.3416619873047,288.37537540875354L266.34425033569335,287.3734463749079L268.34683868408206,286.77228895460064L270.3494270324707,286.41159450241616L272.35201538085937,286.1951778311055L274.3546037292481,286.06532782831914L276.3571920776367,285.9517355646439L278.3597804260254,285.88358020643875L280.36236877441405,285.8426869915157L282.3649571228027,285.8181510625618L284.3675454711914,285.8034295051895L286.3701338195801,285.7945965707661L288.37272216796873,285.7892968101121L290.3753105163574,285.78611695371967L292.3778988647461,285.7842090398842L294.38048721313476,285.78306429158295L296.3830755615234,285.7823774426022L298.3856639099121,285.78196533321375L300.3882522583008,285.78171806758064L302.39084060668944,285.0599511970008L304.39342895507815,284.59577196818145L306.3960173034668,284.3172644308898L308.39860565185546,284.1501599085148L310.4011940002442,284.0498971950898L312.40378234863283,283.9897395670348L314.4063706970215,283.95364499020184L316.40895904541014,283.931988244102L318.41154739379886,283.9189941964421L320.4141357421875,283.9111977678462L322.41672409057617,283.90651991068864L324.4193124389649,283.9037131963941L326.4219007873535,283.90202916781743L328.4244891357422,283.90101875067137L330.42707748413085,283.9004125003837L332.4296658325195,283.90004875021117L334.4322541809082,283.8998305001076L336.4348425292969,281.64402050228216L338.43743087768553,280.29053450358685L340.4400192260742,279.47844290436973L342.4426075744629,278.9911879448394L344.44519592285155,278.6988349691212L346.4477842712402,278.52342318369034L348.4503726196289,278.41817611243175L350.4529609680176,278.35502786967663L352.45554931640623,278.31713892402354L354.45813766479495,278.2944055566317L356.4607260131836,278.2807655361966L358.46331436157226,278.2725815239355L360.465902709961,278.26767111657887L362.4684910583496,278.26472487216495L364.4710794067383,278.26295712551655L366.47366775512694,278.2618964775275L368.47625610351565,261.17539474474614L370.4788444519043,250.9234937050773L372.48143280029296,244.77235308127604L374.4840211486817,241.08166870699523L376.4866094970703,238.86725808242682L378.489197845459,237.5386117076857L380.49178619384764,236.74142388284108L382.4943745422363,236.26311118793427L384.496962890625,235.9761235709902L386.49955123901367,235.80393100082375L388.5021395874023,235.7006154587239L390.504727935791,235.638626133464L392.5073162841797,175.0935779737605L394.50990463256835,138.7665490779384L396.512492980957,116.97033174044515L398.5150813293457,103.8926013379492L400.5176696777344,96.04596309645166L402.52025802612303,91.33798015155304L404.52284637451174,88.51319038461389L406.52543472290034,86.81831652445044L408.52802307128906,85.80139220835241L410.5306114196777,85.19123761869349L412.5331997680664,84.82514486489822L414.535788116455,84.60548921262102L416.53837646484374,84.47369582125475L418.5409648132324,84.39461978643499L420.5435531616211,84.3471741655431L422.54614151000976,84.31870679300795L424.5487298583985,84.30162636948688L426.5513182067871,84.29137811537424L428.5539065551758,84.2852291629066L430.55649490356444,84.2815397914261L432.55908325195315,84.2793261685377L434.5616716003418,84.2779979948047L436.5642599487305,84.27720109056492L438.5668482971191,84.27672294802102L440.56943664550784,84.27643606249472L442.5720249938965,84.2762639311789L444.5746133422852,84.27616065238948L446.5772016906738,84.27609868511576L448.5797900390625,83.39768721476213L450.5823783874512,82.8706403325499L452.5849667358398,82.55441220322257L454.58755508422854,82.3646753256262L456.59014343261714,82.25083319906838L458.59273178100585,82.1825279231337L460.5953201293945,82.14154475757283L462.5979084777832,82.1169548582364L464.6004968261718,82.10220091863442L466.60308517456053,82.09334855487327L468.6056735229492,82.0880371366166L470.6082618713379,82.08485028566258L472.61085021972656,82.08293817509019L474.61343856811527,82.08179090874671L476.61602691650387,82.08110254894063L478.6186152648926,82.08068953305701L480.62120361328124,79.36929893082515L482.62379196166995,77.742464569486L484.6263803100586,76.76636395268252L486.6289686584473,76.18070358260042L488.6315570068359,75.82930736055118L490.63414535522463,75.61846962732159L492.6367337036133,75.49196698738388L494.639322052002,75.41606540342121L496.6419104003906,75.37052445304363L498.6444987487793,75.34319988281703L500.64708709716797,75.32680514068113L502.6496754455566,75.31696829539953L504.65226379394534,75.31106618823065L506.65485214233394,75.3075249239293L508.65744049072265,75.30540016534854L510.6600288391113,75.30412531019999L512.6626171875,75.30336039711091L514.6652055358886,75.30290144925749L516.6677938842773,75.3026260805454L518.670382232666,75.30246085931816L520.6729705810548,75.30236172658175L522.6755589294434,75.30230224693997L524.6781472778321,75.30226655915493L526.6807356262207,75.30224514648387L528.6833239746094,75.30223229888117L530.685912322998,75.30222459031961L532.6885006713867,75.30221996518264L534.6910890197754,75.30221719010052L536.6936773681641,75.30221552505122L538.6962657165527,75.30221452602166L540.6988540649414,75.30221392660388L542.70144241333,75.30221356695324L544.7040307617187,75.30221335116283L546.7066191101075,75.30221322168859L548.7092074584962,75.3022131440041L550.7117958068848,75.30221309739335L552.7143841552734,75.30221306942695L554.7169725036621,75.30221305264706L556.7195608520508,75.30221304257918L558.7221492004395,75.30221303653843L560.7247375488281,75.30221303291393L562.7273258972168,75.30221303073932L564.7299142456054,75.30221302943448L566.7325025939941,75.30221302865158L568.7350909423828,75.30221302818182L570.7376792907716,75.3022130279L572.7402676391602,75.30221302773089L574.7428559875489,75.30221302762942L576.7454443359375,75.30221302756854L578.7480326843262,75.30221302753199L580.7506210327148,75.3022130275101L582.7532093811035,75.30221302749698L584.7557977294922,75.30221302748907L586.7583860778809,75.30221302748436L588.7609744262695,75.30221302748151L590.7635627746582,75.30221302747981L592.7661511230468,75.30221302747884L594.7687394714355,75.30221302747822L596.7713278198243,75.30221302747788L598.773916168213,75.30221302747759L600.7765045166016,75.30221302747748L602.7790928649902,75.30221302747736L604.7816812133789,75.30221302747731L606.7842695617676,75.30221302747725L608.7868579101563,75.30221302747725L610.7894462585449,75.30221302747725L612.7920346069336,75.30221302747725L614.7946229553222,75.30221302747725L616.7972113037109,75.30221302747725L618.7997996520996,75.30221302747725L620.8023880004883,75.30221302747725L622.804976348877,75.30221302747725L624.8075646972657,75.30221302747725L626.8101530456543,75.30221302747725L628.812741394043,75.30221302747725L630.8153297424316,75.30221302747725L632.8179180908203,75.30221302747725L634.820506439209,75.30221302747725L636.8230947875977,75.30221302747725L638.8256831359863,75.30221302747725L640.828271484375,75.30221302747725L642.8308598327636,75.30221302747725L644.8334481811523,75.30221302747725L646.836036529541,75.30221302747725L648.8386248779298,75.30221302747725L650.8412132263184,75.30221302747725L652.843801574707,75.30221302747725L654.8463899230957,75.30221302747725L656.8489782714844,75.30221302747725L658.8515666198731,75.30221302747725L660.8541549682617,75.30221302747725L662.8567433166504,75.30221302747725L664.859331665039,75.30221302747725L666.8619200134277,75.30221302747725L668.8645083618164,75.30221302747725L670.8670967102051,75.30221302747725L672.8696850585937,75.30221302747725L674.8722734069825,75.30221302747725L676.8748617553711,75.30221302747725L678.8774501037598,75.30221302747725L680.8800384521484,75.30221302747725L682.8826268005371,75.30221302747725L684.8852151489258,75.30221302747725L686.8878034973145,75.30221302747725L688.8903918457031,75.30221302747725L690.8929801940918,75.30221302747725L692.8955685424804,75.30221302747725L694.8981568908691,75.30221302747725L696.9007452392578,75.30221302747725L698.9033335876466,75.30221302747725L700.9059219360352,75.30221302747725" fill="none"></path></g><g><path style="fill: none;" stroke="rgb(255, 112, 67)" stroke-width="1.7391304969787598px" d="M102.13200576782226,329.67176866976314L120.15530090332031,329.13701321891074L122.15788925170898,328.95052557766564L124.16047760009765,328.86825161829285L126.16306594848633,328.8262867604587L128.165654296875,328.8032984924722L130.1682426452637,328.790211726623L132.17083099365234,328.78259813367663L104.13459411621093,329.1418871536305L106.13718246459962,329.17363165074164L108.13977081298829,329.1925550557296L110.14235916137696,329.2038650645937L112.14494750976563,329.21063529287267L114.14753585815428,329.2146917662735L116.15012420654296,329.18621328627296L118.15271255493164,329.16913477038923L134.17341934204103,329.01005291181724L136.17600769042969,328.9146210318609L138.17859603881834,328.85736810718197L140.18118438720703,328.82301858526444L142.1837727355957,328.80240967589015L144.18636108398437,328.7900446196113L146.18894943237305,328.7826256900054L148.1915377807617,328.77817436973936L150.1941261291504,328.7755035910787L152.19671447753908,328.77390112874184L154.19930282592773,328.7729396530892L156.20189117431642,328.7723627683274L158.20447952270507,328.77201663769705L160.20706787109376,328.77180895940046L162.20965621948244,328.7716843524519L164.2122445678711,328.77160958829336L166.21483291625975,328.77156472980204L168.21742126464844,327.5278285517513L170.2200096130371,326.53841200297234L172.22259796142578,325.9447620845906L174.22518630981446,320.67024280222813L176.22777465820312,317.5055312537017L178.2303630065918,313.7709047715824L180.2329513549805,311.5301288876359L182.23553970336914,310.185663359185L184.23812805175783,309.37898404280463L186.24071640014648,308.8949764532249L188.24330474853514,308.60457189956645L190.24589309692382,308.43032916740356L192.2484814453125,308.3257835281174L194.25106979370116,308.26305614455L196.25365814208985,308.225419714411L198.2562464904785,308.2028378563281L200.2588348388672,308.18928874147855L202.26142318725587,308.18115927256895L204.26401153564453,308.1762815912232L206.2665998840332,308.17335498241573L208.26918823242187,308.17159901713126L210.27177658081055,308.1705454379606L212.27436492919924,308.16991329045817L214.2769532775879,308.1695340019567L216.27954162597658,308.16930642885586L218.28212997436526,308.1691698849953L220.28471832275392,308.16908795867903L222.2873066711426,308.16903880288925L224.28989501953126,308.1690093094154L226.2924833679199,308.16899161333106L228.29507171630857,308.16898099568044L230.29766006469725,308.16897462509013L232.3002484130859,308.1689708027359L234.3028367614746,308.16896850932335L236.30542510986328,308.1689671332758L238.30801345825193,308.16896630764734L240.31060180664062,308.16896581227024L242.3131901550293,308.16896551504396L244.31577850341796,308.1689653367082L246.31836685180664,308.1689652297067L248.3209552001953,308.1689651655059L250.32354354858398,308.16896512698537L252.32613189697267,308.168965103873L254.32872024536132,308.16896509000566L256.33130859375,308.1689650816852L258.33389694213867,308.168965076693L260.3364852905274,308.1689650736976L262.33907363891603,308.1689650719004L264.3416619873047,308.1689650708221L266.34425033569335,308.1689650701751L268.34683868408206,308.16896506978685L270.3494270324707,308.16896506955396L272.35201538085937,308.1689650694142L274.3546037292481,308.16896506933034L276.3571920776367,308.16896506928003L278.3597804260254,308.16896506924985L280.36236877441405,308.1689650692317L282.3649571228027,308.16896506922086L284.3675454711914,308.1689650692143L286.3701338195801,308.16896506921046L288.37272216796873,308.16896506920807L290.3753105163574,308.1689650692067L292.3778988647461,308.1689650692058L294.38048721313476,308.16896506920534L296.3830755615234,308.168965069205L298.3856639099121,308.16896506920483L300.3882522583008,308.1689650692047L302.39084060668944,308.16896506920466L304.39342895507815,308.1689650692046L306.3960173034668,308.1689650692046L308.39860565185546,308.1689650692046L310.4011940002442,308.16896506920455L312.40378234863283,308.16896506920455L314.4063706970215,308.16896506920455L316.40895904541014,308.16896506920455L318.41154739379886,308.16896506920455L320.4141357421875,308.16896506920455L322.41672409057617,308.16896506920455L324.4193124389649,308.16896506920455L326.4219007873535,308.16896506920455L328.4244891357422,308.16896506920455L330.42707748413085,308.16896506920455L332.4296658325195,308.16896506920455L334.4322541809082,308.16896506920455L336.4348425292969,293.8895326205194L338.43743087768553,285.3218731513083L340.4400192260742,280.18127746978166L342.4426075744629,277.0969200608656L344.44519592285155,275.24630561551606L346.4477842712402,274.13593694830627L348.4503726196289,273.46971574798044L350.4529609680176,273.06998302778493L352.45554931640623,272.8301433956676L354.45813766479495,272.68623961639724L356.4607260131836,272.599897348835L358.46331436157226,272.54809198829764L360.465902709961,272.51700877197527L362.4684910583496,272.4983588421818L364.4710794067383,272.48716888430573L366.47366775512694,272.4804549095801L368.47625610351565,272.47642652474474L370.4788444519043,272.4740094938435L372.48143280029296,272.4725592753028L374.4840211486817,272.4716891441783L376.4866094970703,272.47116706550366L378.489197845459,272.47085381829885L380.49178619384764,272.47066586997596L382.4943745422363,272.4705531009822L384.496962890625,272.470485439586L386.49955123901367,272.47044484274824L388.5021395874023,272.4704204846456L390.504727935791,272.47040586978403L392.5073162841797,272.4703971008671L394.50990463256835,272.4703918395169L396.512492980957,262.42222507570546L398.5150813293457,256.39332501741865L400.5176696777344,252.77598498244652L402.52025802612303,250.60558096146326L404.52284637451174,249.3033385488733L406.52543472290034,248.52199310131934L408.52802307128906,248.05318583278694L410.5306114196777,247.77190147166752L412.5331997680664,247.60313085499587L414.535788116455,247.50186848499288L416.53837646484374,247.44111106299107L418.5409648132324,247.40465660978998L420.5435531616211,247.38278393786936L422.54614151000976,247.36966033471697L424.5487298583985,247.3617861728255L426.5513182067871,247.3570616756907L428.5539065551758,247.35422697740978L430.55649490356444,247.35252615844124L432.55908325195315,247.35150566706008L434.5616716003418,247.3508933722314L436.5642599487305,247.3505259953342L438.5668482971191,247.35030556919585L440.56943664550784,247.35017331351287L442.5720249938965,247.35009396010307L444.5746133422852,247.3500463480572L446.5772016906738,247.35001778082966L448.5797900390625,247.35000064049314L450.5823783874512,247.34999035629124L452.5849667358398,247.3499841857701L454.58755508422854,247.34998048345741L456.59014343261714,247.34997826206978L458.59273178100585,247.34997692923722L460.5953201293945,247.34997612953768L462.5979084777832,247.34997564971795L464.6004968261718,247.34997536182613L466.60308517456053,247.34997518909103L468.6056735229492,247.34997508544996L470.6082618713379,247.34997502326533L472.61085021972656,247.34997498595453L474.61343856811527,247.3499749635681L476.61602691650387,247.34997495013621L478.6186152648926,247.3499749420771L480.62120361328124,247.3499749372416L482.62379196166995,247.3499749343403L484.6263803100586,247.34997493259954L486.6289686584473,247.3499749315551L488.6315570068359,247.3499749309284L490.63414535522463,247.3499749305524L492.6367337036133,247.34997493032677L494.639322052002,247.34997493019142L496.6419104003906,247.3499749301102L498.6444987487793,187.77569067706028L500.64708709716797,152.03112012523027L502.6496754455566,130.58437779413234L504.65226379394534,117.7163323954735L506.65485214233394,109.99550515627828L508.65744049072265,105.36300881276111L510.6600288391113,102.58351100665078L512.6626171875,100.91581232298466L514.6652055358886,99.91519311278495L516.6677938842773,99.31482158666506L518.670382232666,98.95459867099322L520.6729705810548,98.73846492159004L522.6755589294434,98.60878467194811L524.6781472778321,98.53097652216309L526.6807356262207,98.48429163229196L528.6833239746094,98.45628069836937L530.685912322998,98.43947413801578L532.6885006713867,98.42939020180364L534.6910890197754,98.42333984007627L536.6936773681641,98.41970962303992L538.6962657165527,98.41753149281806L540.6988540649414,98.416224614685L542.70144241333,98.41544048780514L544.7040307617187,98.41497001167727L546.7066191101075,98.41468772600047L548.7092074584962,98.41451835459446L550.7117958068848,98.4144167317508L552.7143841552734,98.41435575804462L554.7169725036621,98.4143191738209L556.7195608520508,96.24548099751951L558.7221492004395,94.9441780917387L560.7247375488281,94.16339634827028L562.7273258972168,93.69492730218917L564.7299142456054,93.41384587454047L566.7325025939941,93.24519701795128L568.7350909423828,93.14400770399777L570.7376792907716,93.08329411562568L572.7402676391602,93.0468659626024L574.7428559875489,92.99181305113893L576.7454443359375,92.95878130426081L578.7480326843262,92.938962256134L580.7506210327148,92.92707082725786L582.7532093811035,92.91993596993217L584.7557977294922,92.91565505553683L586.7583860778809,92.91308650689962L588.7609744262695,88.40090504954844L590.7635627746582,85.69359617513771L592.7661511230468,84.06921085049129L594.7687394714355,83.0945796557034L596.7713278198243,82.50980093883072L598.773916168213,82.15893370870708L600.7765045166016,81.94841337063286L602.7790928649902,81.82210116778833L604.7816812133789,81.74631384608159L606.7842695617676,81.70084145305765L608.7868579101563,81.67355801724318L610.7894462585449,81.65718795575452L612.7920346069336,81.64736591886134L614.7946229553222,81.64147269672543L616.7972113037109,81.63793676344392L618.7997996520996,81.63581520347492L620.8023880004883,81.6345422674936L622.804976348877,81.63377850590479L624.8075646972657,81.63332024895146L626.8101530456543,81.63304529477955L628.812741394043,81.63288032227638L630.8153297424316,81.63278133877446L632.8179180908203,81.6327219486733L634.820506439209,81.63268631461261L636.8230947875977,81.6326649341762L638.8256831359863,81.63265210591436L640.828271484375,81.63264440895722L642.8308598327636,81.63263979078295L644.8334481811523,81.63263701987842L646.836036529541,81.63263535733569L648.8386248779298,81.63263435981008L650.8412132263184,81.6326337612947L652.843801574707,81.63263340218543L654.8463899230957,81.63263318671989L656.8489782714844,81.63263305744056L658.8515666198731,81.632632979873L660.8541549682617,81.63263293333245L662.8567433166504,81.63263290540817L664.859331665039,81.63263288865352L666.8619200134277,81.6326328786007L668.8645083618164,81.6326328725691L670.8670967102051,81.63263286895011L672.8696850585937,81.63263286677869L674.8722734069825,81.6326328654759L676.8748617553711,81.63263286469419L678.8774501037598,81.63263286422517L680.8800384521484,81.63263286394368L682.8826268005371,81.63263286377492L684.8852151489258,81.63263286367356L686.8878034973145,81.63263286361274L688.8903918457031,81.6326328635763L690.8929801940918,81.63263286355442L692.8955685424804,81.63263286354135L694.8981568908691,81.63263286353344L696.9007452392578,81.63263286352867L698.9033335876466,81.63263286352588L700.9059219360352,81.63263286352418" fill="none"></path></g></g></g></g><g opacity="0.20000000298023224"><g><g><g><path style="fill: none;" stroke="rgb(238, 51, 119)" stroke-width="1.7391304969787598px" d="M102.13200576782226,329.87011146858566L104.13459411621093,328.0785136866942L106.13718246459962,323.3957685463689L108.13977081298829,308.4043041226268L110.14235916137696,308.4043041226268L112.14494750976563,308.4043041226268L114.14753585815428,306.4569385842979L116.15012420654296,306.4569385842979L120.15530090332031,306.4569385842979L118.15271255493164,306.4569385842979L122.15788925170898,306.4569385842979L124.16047760009765,306.4569385842979L126.16306594848633,306.4569385842979L128.165654296875,306.4569385842979L130.1682426452637,306.4569385842979L132.17083099365234,306.4569385842979L134.17341934204103,306.4569385842979L136.17600769042969,306.4569385842979L138.17859603881834,306.4569385842979L140.18118438720703,306.4569385842979L142.1837727355957,306.4569385842979L144.18636108398437,306.4569385842979L146.18894943237305,306.4569385842979L148.1915377807617,306.4569385842979L150.1941261291504,306.4569385842979L152.19671447753908,306.4569385842979L154.19930282592773,306.4569385842979L156.20189117431642,306.4569385842979L158.20447952270507,306.4569385842979L160.20706787109376,306.4569385842979L162.20965621948244,306.4569385842979L164.2122445678711,306.4569385842979L166.21483291625975,306.4569385842979L168.21742126464844,306.4569385842979L170.2200096130371,306.4569385842979L172.22259796142578,306.4569385842979L174.22518630981446,306.4569385842979L176.22777465820312,306.4569385842979L178.2303630065918,306.4569385842979L180.2329513549805,306.4569385842979L182.23553970336914,306.4569385842979L184.23812805175783,306.4569385842979L186.24071640014648,306.4569385842979L188.24330474853514,306.4569385842979L190.24589309692382,306.4569385842979L192.2484814453125,306.4569385842979L194.25106979370116,306.4569385842979L196.25365814208985,306.4569385842979L198.2562464904785,306.4569385842979L200.2588348388672,306.4569385842979L202.26142318725587,306.4569385842979L204.26401153564453,306.4569385842979L206.2665998840332,306.4569385842979L208.26918823242187,306.4569385842979L210.27177658081055,306.4569385842979L212.27436492919924,306.4569385842979L214.2769532775879,306.4569385842979L216.27954162597658,306.4569385842979L218.28212997436526,306.4569385842979L220.28471832275392,306.4569385842979L222.2873066711426,306.4569385842979L224.28989501953126,306.4569385842979L226.2924833679199,306.4569385842979L228.29507171630857,306.4569385842979L230.29766006469725,306.4569385842979L232.3002484130859,306.4569385842979L234.3028367614746,306.4569385842979L236.30542510986328,298.8290749774873L238.30801345825193,298.8290749774873L240.31060180664062,298.8290749774873L242.3131901550293,298.8290749774873L244.31577850341796,298.8290749774873L246.31836685180664,298.8290749774873L248.3209552001953,298.8290749774873L250.32354354858398,298.8290749774873L252.32613189697267,298.8290749774873L254.32872024536132,298.8290749774873L256.33130859375,298.8290749774873L258.33389694213867,298.8290749774873L260.3364852905274,298.8290749774873L262.33907363891603,297.05861819401383L264.3416619873047,297.05861819401383L266.34425033569335,297.05861819401383L268.34683868408206,297.05861819401383L270.3494270324707,297.05861819401383L272.35201538085937,297.05861819401383L274.3546037292481,297.05861819401383L276.3571920776367,297.05861819401383L278.3597804260254,297.05861819401383L280.36236877441405,297.05861819401383L282.3649571228027,297.05861819401383L284.3675454711914,297.05861819401383L286.3701338195801,297.05861819401383L288.37272216796873,297.05861819401383L290.3753105163574,297.05861819401383L292.3778988647461,297.05861819401383L294.38048721313476,297.05861819401383L296.3830755615234,297.05861819401383L298.3856639099121,297.05861819401383L300.3882522583008,297.05861819401383L302.39084060668944,297.05861819401383L304.39342895507815,297.05861819401383L306.3960173034668,297.05861819401383L308.39860565185546,297.05861819401383L310.4011940002442,269.2616611850261L312.40378234863283,269.2616611850261L314.4063706970215,269.2616611850261L316.40895904541014,269.2616611850261L318.41154739379886,269.2616611850261L320.4141357421875,269.2616611850261L322.41672409057617,269.2616611850261L324.4193124389649,269.2616611850261L326.4219007873535,269.2616611850261L328.4244891357422,269.2616611850261L330.42707748413085,269.2616611850261L332.4296658325195,269.2616611850261L334.4322541809082,269.2616611850261L336.4348425292969,269.2616611850261L338.43743087768553,269.2616611850261L340.4400192260742,269.2616611850261L342.4426075744629,269.2616611850261L344.44519592285155,269.2616611850261L346.4477842712402,269.2616611850261L348.4503726196289,269.2616611850261L350.4529609680176,269.2616611850261L352.45554931640623,269.2616611850261L354.45813766479495,269.2616611850261L356.4607260131836,269.2616611850261L358.46331436157226,269.2616611850261L360.465902709961,269.2616611850261L362.4684910583496,269.2616611850261L364.4710794067383,269.2616611850261L366.47366775512694,269.2616611850261L368.47625610351565,269.2616611850261L370.4788444519043,269.2616611850261L372.48143280029296,269.2616611850261L374.4840211486817,269.2616611850261L376.4866094970703,269.2616611850261L378.489197845459,269.2616611850261L380.49178619384764,269.2616611850261L382.4943745422363,269.2616611850261L384.496962890625,269.2616611850261L386.49955123901367,269.2616611850261L388.5021395874023,269.2616611850261L390.504727935791,269.2616611850261L392.5073162841797,269.2616611850261L394.50990463256835,269.2616611850261L396.512492980957,269.2616611850261L398.5150813293457,269.2616611850261L400.5176696777344,94.56504226565363L402.52025802612303,94.56504226565363L404.52284637451174,87.50863966226575L406.52543472290034,87.50863966226575L408.52802307128906,87.50863966226575L410.5306114196777,85.5070199918747L412.5331997680664,85.5070199918747L414.535788116455,85.5070199918747L416.53837646484374,85.5070199918747L418.5409648132324,85.5070199918747L420.5435531616211,85.5070199918747L422.54614151000976,85.5070199918747L424.5487298583985,85.5070199918747L426.5513182067871,85.5070199918747L428.5539065551758,85.5070199918747L430.55649490356444,85.5070199918747L432.55908325195315,85.5070199918747L434.5616716003418,85.5070199918747L436.5642599487305,85.5070199918747L438.5668482971191,85.5070199918747L440.56943664550784,85.5070199918747L442.5720249938965,85.5070199918747L444.5746133422852,85.5070199918747L446.5772016906738,85.5070199918747L448.5797900390625,85.5070199918747L450.5823783874512,85.5070199918747L452.5849667358398,85.5070199918747L454.58755508422854,85.5070199918747L456.59014343261714,85.5070199918747L458.59273178100585,85.5070199918747L460.5953201293945,85.5070199918747L462.5979084777832,85.5070199918747L464.6004968261718,85.5070199918747L466.60308517456053,85.5070199918747L468.6056735229492,85.5070199918747L470.6082618713379,85.5070199918747L472.61085021972656,85.5070199918747L474.61343856811527,85.5070199918747L476.61602691650387,85.5070199918747L478.6186152648926,85.5070199918747L480.62120361328124,85.5070199918747L482.62379196166995,85.5070199918747L484.6263803100586,85.5070199918747L486.6289686584473,85.5070199918747L488.6315570068359,85.5070199918747L490.63414535522463,85.5070199918747L492.6367337036133,85.5070199918747L494.639322052002,85.5070199918747L496.6419104003906,85.5070199918747L498.6444987487793,85.5070199918747L500.64708709716797,85.5070199918747L502.6496754455566,85.5070199918747L504.65226379394534,85.5070199918747L506.65485214233394,85.5070199918747L508.65744049072265,85.5070199918747L510.6600288391113,85.5070199918747L512.6626171875,85.5070199918747L514.6652055358886,85.5070199918747L516.6677938842773,85.5070199918747L518.670382232666,85.5070199918747L520.6729705810548,85.5070199918747L522.6755589294434,85.5070199918747L524.6781472778321,85.5070199918747L526.6807356262207,85.5070199918747L528.6833239746094,85.5070199918747L530.685912322998,85.5070199918747L532.6885006713867,85.5070199918747L534.6910890197754,85.5070199918747L536.6936773681641,85.5070199918747L538.6962657165527,85.5070199918747L540.6988540649414,85.5070199918747L542.70144241333,85.5070199918747L544.7040307617187,85.5070199918747L546.7066191101075,85.5070199918747L548.7092074584962,85.5070199918747L550.7117958068848,85.5070199918747L552.7143841552734,85.5070199918747L554.7169725036621,85.5070199918747L556.7195608520508,85.5070199918747L558.7221492004395,85.5070199918747L560.7247375488281,85.5070199918747L562.7273258972168,85.5070199918747L564.7299142456054,85.5070199918747L566.7325025939941,85.5070199918747L568.7350909423828,85.5070199918747L570.7376792907716,85.5070199918747L572.7402676391602,85.5070199918747L574.7428559875489,85.5070199918747L576.7454443359375,85.5070199918747L578.7480326843262,85.5070199918747L580.7506210327148,85.5070199918747L582.7532093811035,85.5070199918747L584.7557977294922,85.5070199918747L586.7583860778809,85.5070199918747L588.7609744262695,67.11635015845297L590.7635627746582,67.11635015845297L592.7661511230468,67.11635015845297L594.7687394714355,67.11635015845297L596.7713278198243,67.11635015845297L598.773916168213,67.11635015845297L600.7765045166016,67.11635015845297L602.7790928649902,67.11635015845297L604.7816812133789,67.11635015845297L606.7842695617676,67.11635015845297L608.7868579101563,67.11635015845297L610.7894462585449,67.11635015845297L612.7920346069336,67.11635015845297L614.7946229553222,67.11635015845297L616.7972113037109,67.11635015845297L618.7997996520996,67.11635015845297L620.8023880004883,67.11635015845297L622.804976348877,67.11635015845297L624.8075646972657,67.11635015845297L626.8101530456543,67.11635015845297L628.812741394043,67.11635015845297L630.8153297424316,67.11635015845297L632.8179180908203,67.11635015845297L634.820506439209,67.11635015845297L636.8230947875977,67.11635015845297L638.8256831359863,67.11635015845297L640.828271484375,67.11635015845297L642.8308598327636,67.11635015845297L644.8334481811523,67.11635015845297L646.836036529541,67.11635015845297L648.8386248779298,67.11635015845297L650.8412132263184,67.11635015845297L652.843801574707,67.11635015845297L654.8463899230957,67.11635015845297L656.8489782714844,67.11635015845297L658.8515666198731,67.11635015845297L660.8541549682617,67.11635015845297L662.8567433166504,67.11635015845297L664.859331665039,67.11635015845297L666.8619200134277,67.11635015845297L668.8645083618164,67.11635015845297L670.8670967102051,67.11635015845297L672.8696850585937,67.11635015845297L674.8722734069825,67.11635015845297L676.8748617553711,67.11635015845297L678.8774501037598,67.11635015845297L680.8800384521484,67.11635015845297L682.8826268005371,67.11635015845297L684.8852151489258,67.11635015845297L686.8878034973145,67.11635015845297L688.8903918457031,67.11635015845297L690.8929801940918,67.11635015845297L692.8955685424804,67.11635015845297L694.8981568908691,67.11635015845297L696.9007452392578,67.11635015845297L698.9033335876466,67.11635015845297L700.9059219360352,67.11635015845297" fill="none"></path></g><g><path style="fill: none;" stroke="rgb(0, 119, 187)" stroke-width="1.7391304969787598px" d="M102.13200576782226,329.0058408725355L104.13459411621093,329.0058408725355L106.13718246459962,328.8906352930702L108.13977081298829,328.8906352930702L110.14235916137696,324.0067391837202L120.15530090332031,324.0067391837202L122.15788925170898,324.0067391837202L124.16047760009765,324.0067391837202L126.16306594848633,324.0067391837202L128.165654296875,324.0067391837202L130.1682426452637,324.0067391837202L132.17083099365234,324.0067391837202L112.14494750976563,324.0067391837202L114.14753585815428,324.0067391837202L116.15012420654296,324.0067391837202L118.15271255493164,324.0067391837202L134.17341934204103,324.0067391837202L136.17600769042969,324.0067391837202L138.17859603881834,324.0067391837202L140.18118438720703,324.0067391837202L142.1837727355957,324.0067391837202L144.18636108398437,324.0067391837202L146.18894943237305,324.0067391837202L148.1915377807617,324.0067391837202L150.1941261291504,324.0067391837202L152.19671447753908,324.0067391837202L154.19930282592773,324.0067391837202L156.20189117431642,324.0067391837202L158.20447952270507,324.0067391837202L160.20706787109376,324.0067391837202L162.20965621948244,324.0067391837202L164.2122445678711,324.0067391837202L166.21483291625975,324.0067391837202L168.21742126464844,324.0067391837202L170.2200096130371,324.0067391837202L172.22259796142578,324.0067391837202L174.22518630981446,324.0067391837202L176.22777465820312,324.0067391837202L178.2303630065918,324.0067391837202L180.2329513549805,324.0067391837202L182.23553970336914,324.0067391837202L184.23812805175783,324.0067391837202L186.24071640014648,324.0067391837202L188.24330474853514,324.0067391837202L190.24589309692382,324.0067391837202L192.2484814453125,324.0067391837202L194.25106979370116,324.0067391837202L196.25365814208985,324.0067391837202L198.2562464904785,324.0067391837202L200.2588348388672,324.0067391837202L202.26142318725587,324.0067391837202L204.26401153564453,324.0067391837202L206.2665998840332,324.0067391837202L208.26918823242187,324.0067391837202L210.27177658081055,324.0067391837202L212.27436492919924,324.0067391837202L214.2769532775879,324.0067391837202L216.27954162597658,324.0067391837202L218.28212997436526,324.0067391837202L220.28471832275392,324.0067391837202L222.2873066711426,324.0067391837202L224.28989501953126,324.0067391837202L226.2924833679199,324.0067391837202L228.29507171630857,324.0067391837202L230.29766006469725,318.0750301969051L232.3002484130859,318.0750301969051L234.3028367614746,318.0750301969051L236.30542510986328,318.0750301969051L238.30801345825193,318.0750301969051L240.31060180664062,318.0750301969051L242.3131901550293,318.0750301969051L244.31577850341796,318.0750301969051L246.31836685180664,318.0750301969051L248.3209552001953,318.0750301969051L250.32354354858398,318.0750301969051L252.32613189697267,318.0750301969051L254.32872024536132,318.0750301969051L256.33130859375,285.8705528241396L258.33389694213867,285.8705528241396L260.3364852905274,285.8705528241396L262.33907363891603,285.8705528241396L264.3416619873047,285.8705528241396L266.34425033569335,285.8705528241396L268.34683868408206,285.8705528241396L270.3494270324707,285.8705528241396L272.35201538085937,285.8705528241396L274.3546037292481,285.8705528241396L276.3571920776367,285.78134716913104L278.3597804260254,285.78134716913104L280.36236877441405,285.78134716913104L282.3649571228027,285.78134716913104L284.3675454711914,285.78134716913104L286.3701338195801,285.78134716913104L288.37272216796873,285.78134716913104L290.3753105163574,285.78134716913104L292.3778988647461,285.78134716913104L294.38048721313476,285.78134716913104L296.3830755615234,285.78134716913104L298.3856639099121,285.78134716913104L300.3882522583008,285.78134716913104L302.39084060668944,283.97730089113116L304.39342895507815,283.89950312495233L306.3960173034668,283.89950312495233L308.39860565185546,283.89950312495233L310.4011940002442,283.89950312495233L312.40378234863283,283.89950312495233L314.4063706970215,283.89950312495233L316.40895904541014,283.89950312495233L318.41154739379886,283.89950312495233L320.4141357421875,283.89950312495233L322.41672409057617,283.89950312495233L324.4193124389649,283.89950312495233L326.4219007873535,283.89950312495233L328.4244891357422,283.89950312495233L330.42707748413085,283.89950312495233L332.4296658325195,283.89950312495233L334.4322541809082,283.89950312495233L336.4348425292969,278.26030550554395L338.43743087768553,278.26030550554395L340.4400192260742,278.26030550554395L342.4426075744629,278.26030550554395L344.44519592285155,278.26030550554395L346.4477842712402,278.26030550554395L348.4503726196289,278.26030550554395L350.4529609680176,278.26030550554395L352.45554931640623,278.26030550554395L354.45813766479495,278.26030550554395L356.4607260131836,278.26030550554395L358.46331436157226,278.26030550554395L360.465902709961,278.26030550554395L362.4684910583496,278.26030550554395L364.4710794067383,278.26030550554395L366.47366775512694,278.26030550554395L368.47625610351565,235.5456421455741L370.4788444519043,235.5456421455741L372.48143280029296,235.5456421455741L374.4840211486817,235.5456421455741L376.4866094970703,235.5456421455741L378.489197845459,235.5456421455741L380.49178619384764,235.5456421455741L382.4943745422363,235.5456421455741L384.496962890625,235.5456421455741L386.49955123901367,235.5456421455741L388.5021395874023,235.5456421455741L390.504727935791,235.5456421455741L392.5073162841797,84.27600573420523L394.50990463256835,84.27600573420523L396.512492980957,84.27600573420523L398.5150813293457,84.27600573420523L400.5176696777344,84.27600573420523L402.52025802612303,84.27600573420523L404.52284637451174,84.27600573420523L406.52543472290034,84.27600573420523L408.52802307128906,84.27600573420523L410.5306114196777,84.27600573420523L412.5331997680664,84.27600573420523L414.535788116455,84.27600573420523L416.53837646484374,84.27600573420523L418.5409648132324,84.27600573420523L420.5435531616211,84.27600573420523L422.54614151000976,84.27600573420523L424.5487298583985,84.27600573420523L426.5513182067871,84.27600573420523L428.5539065551758,84.27600573420523L430.55649490356444,84.27600573420523L432.55908325195315,84.27600573420523L434.5616716003418,84.27600573420523L436.5642599487305,84.27600573420523L438.5668482971191,84.27600573420523L440.56943664550784,84.27600573420523L442.5720249938965,84.27600573420523L444.5746133422852,84.27600573420523L446.5772016906738,84.27600573420523L448.5797900390625,82.08007000923158L450.5823783874512,82.08007000923158L452.5849667358398,82.08007000923158L454.58755508422854,82.08007000923158L456.59014343261714,82.08007000923158L458.59273178100585,82.08007000923158L460.5953201293945,82.08007000923158L462.5979084777832,82.08007000923158L464.6004968261718,82.08007000923158L466.60308517456053,82.08007000923158L468.6056735229492,82.08007000923158L470.6082618713379,82.08007000923158L472.61085021972656,82.08007000923158L474.61343856811527,82.08007000923158L476.61602691650387,82.08007000923158L478.6186152648926,82.08007000923158L480.62120361328124,75.30221302747725L482.62379196166995,75.30221302747725L484.6263803100586,75.30221302747725L486.6289686584473,75.30221302747725L488.6315570068359,75.30221302747725L490.63414535522463,75.30221302747725L492.6367337036133,75.30221302747725L494.639322052002,75.30221302747725L496.6419104003906,75.30221302747725L498.6444987487793,75.30221302747725L500.64708709716797,75.30221302747725L502.6496754455566,75.30221302747725L504.65226379394534,75.30221302747725L506.65485214233394,75.30221302747725L508.65744049072265,75.30221302747725L510.6600288391113,75.30221302747725L512.6626171875,75.30221302747725L514.6652055358886,75.30221302747725L516.6677938842773,75.30221302747725L518.670382232666,75.30221302747725L520.6729705810548,75.30221302747725L522.6755589294434,75.30221302747725L524.6781472778321,75.30221302747725L526.6807356262207,75.30221302747725L528.6833239746094,75.30221302747725L530.685912322998,75.30221302747725L532.6885006713867,75.30221302747725L534.6910890197754,75.30221302747725L536.6936773681641,75.30221302747725L538.6962657165527,75.30221302747725L540.6988540649414,75.30221302747725L542.70144241333,75.30221302747725L544.7040307617187,75.30221302747725L546.7066191101075,75.30221302747725L548.7092074584962,75.30221302747725L550.7117958068848,75.30221302747725L552.7143841552734,75.30221302747725L554.7169725036621,75.30221302747725L556.7195608520508,75.30221302747725L558.7221492004395,75.30221302747725L560.7247375488281,75.30221302747725L562.7273258972168,75.30221302747725L564.7299142456054,75.30221302747725L566.7325025939941,75.30221302747725L568.7350909423828,75.30221302747725L570.7376792907716,75.30221302747725L572.7402676391602,75.30221302747725L574.7428559875489,75.30221302747725L576.7454443359375,75.30221302747725L578.7480326843262,75.30221302747725L580.7506210327148,75.30221302747725L582.7532093811035,75.30221302747725L584.7557977294922,75.30221302747725L586.7583860778809,75.30221302747725L588.7609744262695,75.30221302747725L590.7635627746582,75.30221302747725L592.7661511230468,75.30221302747725L594.7687394714355,75.30221302747725L596.7713278198243,75.30221302747725L598.773916168213,75.30221302747725L600.7765045166016,75.30221302747725L602.7790928649902,75.30221302747725L604.7816812133789,75.30221302747725L606.7842695617676,75.30221302747725L608.7868579101563,75.30221302747725L610.7894462585449,75.30221302747725L612.7920346069336,75.30221302747725L614.7946229553222,75.30221302747725L616.7972113037109,75.30221302747725L618.7997996520996,75.30221302747725L620.8023880004883,75.30221302747725L622.804976348877,75.30221302747725L624.8075646972657,75.30221302747725L626.8101530456543,75.30221302747725L628.812741394043,75.30221302747725L630.8153297424316,75.30221302747725L632.8179180908203,75.30221302747725L634.820506439209,75.30221302747725L636.8230947875977,75.30221302747725L638.8256831359863,75.30221302747725L640.828271484375,75.30221302747725L642.8308598327636,75.30221302747725L644.8334481811523,75.30221302747725L646.836036529541,75.30221302747725L648.8386248779298,75.30221302747725L650.8412132263184,75.30221302747725L652.843801574707,75.30221302747725L654.8463899230957,75.30221302747725L656.8489782714844,75.30221302747725L658.8515666198731,75.30221302747725L660.8541549682617,75.30221302747725L662.8567433166504,75.30221302747725L664.859331665039,75.30221302747725L666.8619200134277,75.30221302747725L668.8645083618164,75.30221302747725L670.8670967102051,75.30221302747725L672.8696850585937,75.30221302747725L674.8722734069825,75.30221302747725L676.8748617553711,75.30221302747725L678.8774501037598,75.30221302747725L680.8800384521484,75.30221302747725L682.8826268005371,75.30221302747725L684.8852151489258,75.30221302747725L686.8878034973145,75.30221302747725L688.8903918457031,75.30221302747725L690.8929801940918,75.30221302747725L692.8955685424804,75.30221302747725L694.8981568908691,75.30221302747725L696.9007452392578,75.30221302747725L698.9033335876466,75.30221302747725L700.9059219360352,75.30221302747725" fill="none"></path></g><g><path style="fill: none;" stroke="rgb(255, 112, 67)" stroke-width="1.7391304969787598px" d="M102.13200576782226,329.67176866976314L120.15530090332031,328.8161599483993L122.15788925170898,328.77149744207037L124.16047760009765,328.77149744207037L126.16306594848633,328.77149744207037L128.165654296875,328.77149744207037L130.1682426452637,328.77149744207037L132.17083099365234,328.77149744207037L104.13459411621093,329.67176866976314L106.13718246459962,329.22076852932105L108.13977081298829,329.22076852932105L110.14235916137696,329.22076852932105L112.14494750976563,329.22076852932105L114.14753585815428,329.22076852932105L116.15012420654296,329.1435290416563L118.15271255493164,329.1435290416563L134.17341934204103,328.77149744207037L136.17600769042969,328.77149744207037L138.17859603881834,328.77149744207037L140.18118438720703,328.77149744207037L142.1837727355957,328.77149744207037L144.18636108398437,328.77149744207037L146.18894943237305,328.77149744207037L148.1915377807617,328.77149744207037L150.1941261291504,328.77149744207037L152.19671447753908,328.77149744207037L154.19930282592773,328.77149744207037L156.20189117431642,328.77149744207037L158.20447952270507,328.77149744207037L160.20706787109376,328.77149744207037L162.20965621948244,328.77149744207037L164.2122445678711,328.77149744207037L166.21483291625975,328.77149744207037L168.21742126464844,325.66222437376155L170.2200096130371,325.0542872223258L172.22259796142578,325.0542872223258L174.22518630981446,312.75846396029L176.22777465820312,312.75846396029L178.2303630065918,308.16896506920455L180.2329513549805,308.16896506920455L182.23553970336914,308.16896506920455L184.23812805175783,308.16896506920455L186.24071640014648,308.16896506920455L188.24330474853514,308.16896506920455L190.24589309692382,308.16896506920455L192.2484814453125,308.16896506920455L194.25106979370116,308.16896506920455L196.25365814208985,308.16896506920455L198.2562464904785,308.16896506920455L200.2588348388672,308.16896506920455L202.26142318725587,308.16896506920455L204.26401153564453,308.16896506920455L206.2665998840332,308.16896506920455L208.26918823242187,308.16896506920455L210.27177658081055,308.16896506920455L212.27436492919924,308.16896506920455L214.2769532775879,308.16896506920455L216.27954162597658,308.16896506920455L218.28212997436526,308.16896506920455L220.28471832275392,308.16896506920455L222.2873066711426,308.16896506920455L224.28989501953126,308.16896506920455L226.2924833679199,308.16896506920455L228.29507171630857,308.16896506920455L230.29766006469725,308.16896506920455L232.3002484130859,308.16896506920455L234.3028367614746,308.16896506920455L236.30542510986328,308.16896506920455L238.30801345825193,308.16896506920455L240.31060180664062,308.16896506920455L242.3131901550293,308.16896506920455L244.31577850341796,308.16896506920455L246.31836685180664,308.16896506920455L248.3209552001953,308.16896506920455L250.32354354858398,308.16896506920455L252.32613189697267,308.16896506920455L254.32872024536132,308.16896506920455L256.33130859375,308.16896506920455L258.33389694213867,308.16896506920455L260.3364852905274,308.16896506920455L262.33907363891603,308.16896506920455L264.3416619873047,308.16896506920455L266.34425033569335,308.16896506920455L268.34683868408206,308.16896506920455L270.3494270324707,308.16896506920455L272.35201538085937,308.16896506920455L274.3546037292481,308.16896506920455L276.3571920776367,308.16896506920455L278.3597804260254,308.16896506920455L280.36236877441405,308.16896506920455L282.3649571228027,308.16896506920455L284.3675454711914,308.16896506920455L286.3701338195801,308.16896506920455L288.37272216796873,308.16896506920455L290.3753105163574,308.16896506920455L292.3778988647461,308.16896506920455L294.38048721313476,308.16896506920455L296.3830755615234,308.16896506920455L298.3856639099121,308.16896506920455L300.3882522583008,308.16896506920455L302.39084060668944,308.16896506920455L304.39342895507815,308.16896506920455L306.3960173034668,308.16896506920455L308.39860565185546,308.16896506920455L310.4011940002442,308.16896506920455L312.40378234863283,308.16896506920455L314.4063706970215,308.16896506920455L316.40895904541014,308.16896506920455L318.41154739379886,308.16896506920455L320.4141357421875,308.16896506920455L322.41672409057617,308.16896506920455L324.4193124389649,308.16896506920455L326.4219007873535,308.16896506920455L328.4244891357422,308.16896506920455L330.42707748413085,308.16896506920455L332.4296658325195,308.16896506920455L334.4322541809082,308.16896506920455L336.4348425292969,272.47038394749165L338.43743087768553,272.47038394749165L340.4400192260742,272.47038394749165L342.4426075744629,272.47038394749165L344.44519592285155,272.47038394749165L346.4477842712402,272.47038394749165L348.4503726196289,272.47038394749165L350.4529609680176,272.47038394749165L352.45554931640623,272.47038394749165L354.45813766479495,272.47038394749165L356.4607260131836,272.47038394749165L358.46331436157226,272.47038394749165L360.465902709961,272.47038394749165L362.4684910583496,272.47038394749165L364.4710794067383,272.47038394749165L366.47366775512694,272.47038394749165L368.47625610351565,272.47038394749165L370.4788444519043,272.47038394749165L372.48143280029296,272.47038394749165L374.4840211486817,272.47038394749165L376.4866094970703,272.47038394749165L378.489197845459,272.47038394749165L380.49178619384764,272.47038394749165L382.4943745422363,272.47038394749165L384.496962890625,272.47038394749165L386.49955123901367,272.47038394749165L388.5021395874023,272.47038394749165L390.504727935791,272.47038394749165L392.5073162841797,272.47038394749165L394.50990463256835,272.47038394749165L396.512492980957,247.34997492998838L398.5150813293457,247.34997492998838L400.5176696777344,247.34997492998838L402.52025802612303,247.34997492998838L404.52284637451174,247.34997492998838L406.52543472290034,247.34997492998838L408.52802307128906,247.34997492998838L410.5306114196777,247.34997492998838L412.5331997680664,247.34997492998838L414.535788116455,247.34997492998838L416.53837646484374,247.34997492998838L418.5409648132324,247.34997492998838L420.5435531616211,247.34997492998838L422.54614151000976,247.34997492998838L424.5487298583985,247.34997492998838L426.5513182067871,247.34997492998838L428.5539065551758,247.34997492998838L430.55649490356444,247.34997492998838L432.55908325195315,247.34997492998838L434.5616716003418,247.34997492998838L436.5642599487305,247.34997492998838L438.5668482971191,247.34997492998838L440.56943664550784,247.34997492998838L442.5720249938965,247.34997492998838L444.5746133422852,247.34997492998838L446.5772016906738,247.34997492998838L448.5797900390625,247.34997492998838L450.5823783874512,247.34997492998838L452.5849667358398,247.34997492998838L454.58755508422854,247.34997492998838L456.59014343261714,247.34997492998838L458.59273178100585,247.34997492998838L460.5953201293945,247.34997492998838L462.5979084777832,247.34997492998838L464.6004968261718,247.34997492998838L466.60308517456053,247.34997492998838L468.6056735229492,247.34997492998838L470.6082618713379,247.34997492998838L472.61085021972656,247.34997492998838L474.61343856811527,247.34997492998838L476.61602691650387,247.34997492998838L478.6186152648926,247.34997492998838L480.62120361328124,247.34997492998838L482.62379196166995,247.34997492998838L484.6263803100586,247.34997492998838L486.6289686584473,247.34997492998838L488.6315570068359,247.34997492998838L490.63414535522463,247.34997492998838L492.6367337036133,247.34997492998838L494.639322052002,247.34997492998838L496.6419104003906,247.34997492998838L498.6444987487793,98.41426429748537L500.64708709716797,98.41426429748537L502.6496754455566,98.41426429748537L504.65226379394534,98.41426429748537L506.65485214233394,98.41426429748537L508.65744049072265,98.41426429748537L510.6600288391113,98.41426429748537L512.6626171875,98.41426429748537L514.6652055358886,98.41426429748537L516.6677938842773,98.41426429748537L518.670382232666,98.41426429748537L520.6729705810548,98.41426429748537L522.6755589294434,98.41426429748537L524.6781472778321,98.41426429748537L526.6807356262207,98.41426429748537L528.6833239746094,98.41426429748537L530.685912322998,98.41426429748537L532.6885006713867,98.41426429748537L534.6910890197754,98.41426429748537L536.6936773681641,98.41426429748537L538.6962657165527,98.41426429748537L540.6988540649414,98.41426429748537L542.70144241333,98.41426429748537L544.7040307617187,98.41426429748537L546.7066191101075,98.41426429748537L548.7092074584962,98.41426429748537L550.7117958068848,98.41426429748537L552.7143841552734,98.41426429748537L554.7169725036621,98.41426429748537L556.7195608520508,92.99222373306753L558.7221492004395,92.99222373306753L560.7247375488281,92.99222373306753L562.7273258972168,92.99222373306753L564.7299142456054,92.99222373306753L566.7325025939941,92.99222373306753L568.7350909423828,92.99222373306753L570.7376792907716,92.99222373306753L572.7402676391602,92.99222373306753L574.7428559875489,92.90923368394374L576.7454443359375,92.90923368394374L578.7480326843262,92.90923368394374L580.7506210327148,92.90923368394374L582.7532093811035,92.90923368394374L584.7557977294922,92.90923368394374L586.7583860778809,92.90923368394374L588.7609744262695,81.63263286352156L590.7635627746582,81.63263286352156L592.7661511230468,81.63263286352156L594.7687394714355,81.63263286352156L596.7713278198243,81.63263286352156L598.773916168213,81.63263286352156L600.7765045166016,81.63263286352156L602.7790928649902,81.63263286352156L604.7816812133789,81.63263286352156L606.7842695617676,81.63263286352156L608.7868579101563,81.63263286352156L610.7894462585449,81.63263286352156L612.7920346069336,81.63263286352156L614.7946229553222,81.63263286352156L616.7972113037109,81.63263286352156L618.7997996520996,81.63263286352156L620.8023880004883,81.63263286352156L622.804976348877,81.63263286352156L624.8075646972657,81.63263286352156L626.8101530456543,81.63263286352156L628.812741394043,81.63263286352156L630.8153297424316,81.63263286352156L632.8179180908203,81.63263286352156L634.820506439209,81.63263286352156L636.8230947875977,81.63263286352156L638.8256831359863,81.63263286352156L640.828271484375,81.63263286352156L642.8308598327636,81.63263286352156L644.8334481811523,81.63263286352156L646.836036529541,81.63263286352156L648.8386248779298,81.63263286352156L650.8412132263184,81.63263286352156L652.843801574707,81.63263286352156L654.8463899230957,81.63263286352156L656.8489782714844,81.63263286352156L658.8515666198731,81.63263286352156L660.8541549682617,81.63263286352156L662.8567433166504,81.63263286352156L664.859331665039,81.63263286352156L666.8619200134277,81.63263286352156L668.8645083618164,81.63263286352156L670.8670967102051,81.63263286352156L672.8696850585937,81.63263286352156L674.8722734069825,81.63263286352156L676.8748617553711,81.63263286352156L678.8774501037598,81.63263286352156L680.8800384521484,81.63263286352156L682.8826268005371,81.63263286352156L684.8852151489258,81.63263286352156L686.8878034973145,81.63263286352156L688.8903918457031,81.63263286352156L690.8929801940918,81.63263286352156L692.8955685424804,81.63263286352156L694.8981568908691,81.63263286352156L696.9007452392578,81.63263286352156L698.9033335876466,81.63263286352156L700.9059219360352,81.63263286352156" fill="none"></path></g></g></g></g></g></g><g transform="translate(68, 377)" clip-path="url(#clip_1)"><clipPath id="clip_1"><rect width="801" height="22"></rect></clipPath><g><g><line x1="0" y1="0" x2="0" y2="5" style="visibility: inherit;" fill="rgb(0, 0, 0)" stroke="rgb(204, 204, 204)" stroke-width="0.8695652484893799px"></line><line x1="100.1294174194336" y1="0" x2="100.1294174194336" y2="5" style="visibility: inherit;" fill="rgb(0, 0, 0)" stroke="rgb(204, 204, 204)" stroke-width="0.8695652484893799px"></line><line x1="200.2588348388672" y1="0" x2="200.2588348388672" y2="5" style="visibility: inherit;" fill="rgb(0, 0, 0)" stroke="rgb(204, 204, 204)" stroke-width="0.8695652484893799px"></line><line x1="300.3882522583008" y1="0" x2="300.3882522583008" y2="5" style="visibility: inherit;" fill="rgb(0, 0, 0)" stroke="rgb(204, 204, 204)" stroke-width="0.8695652484893799px"></line><line x1="400.5176696777344" y1="0" x2="400.5176696777344" y2="5" style="visibility: inherit;" fill="rgb(0, 0, 0)" stroke="rgb(204, 204, 204)" stroke-width="0.8695652484893799px"></line><line x1="500.64708709716797" y1="0" x2="500.64708709716797" y2="5" style="visibility: inherit;" fill="rgb(0, 0, 0)" stroke="rgb(204, 204, 204)" stroke-width="0.8695652484893799px"></line><line x1="600.7765045166016" y1="0" x2="600.7765045166016" y2="5" style="visibility: inherit;" fill="rgb(0, 0, 0)" stroke="rgb(204, 204, 204)" stroke-width="0.8695652484893799px"></line><line x1="700.9059219360352" y1="0" x2="700.9059219360352" y2="5" style="visibility: inherit;" fill="rgb(0, 0, 0)" stroke="rgb(204, 204, 204)" stroke-width="0.8695652484893799px"></line><line x1="801.0353393554688" y1="0" x2="801.0353393554688" y2="5" style="visibility: inherit;" fill="rgb(0, 0, 0)" stroke="rgb(204, 204, 204)" stroke-width="0.8695652484893799px"></line></g><g transform="translate(0, 8)"><text style="text-anchor: middle; visibility: hidden; font-family: &quot;Helvetica Neue&quot;, sans-serif; font-size: 10.434782981872559px; font-weight: 200;" x="0" y="0" dx="0em" dy="0.95em" fill="rgb(50, 49, 63)" stroke="none" stroke-width="0.8695652484893799px">-50</text><text style="text-anchor: middle; visibility: inherit; font-family: &quot;Helvetica Neue&quot;, sans-serif; font-size: 10.434782981872559px; font-weight: 200;" x="100.1294174194336" y="0" dx="0em" dy="0.95em" fill="rgb(50, 49, 63)" stroke="none" stroke-width="0.8695652484893799px">0</text><text style="text-anchor: middle; visibility: inherit; font-family: &quot;Helvetica Neue&quot;, sans-serif; font-size: 10.434782981872559px; font-weight: 200;" x="200.2588348388672" y="0" dx="0em" dy="0.95em" fill="rgb(50, 49, 63)" stroke="none" stroke-width="0.8695652484893799px">50</text><text style="text-anchor: middle; visibility: inherit; font-family: &quot;Helvetica Neue&quot;, sans-serif; font-size: 10.434782981872559px; font-weight: 200;" x="300.3882522583008" y="0" dx="0em" dy="0.95em" fill="rgb(50, 49, 63)" stroke="none" stroke-width="0.8695652484893799px">100</text><text style="text-anchor: middle; visibility: inherit; font-family: &quot;Helvetica Neue&quot;, sans-serif; font-size: 10.434782981872559px; font-weight: 200;" x="400.5176696777344" y="0" dx="0em" dy="0.95em" fill="rgb(50, 49, 63)" stroke="none" stroke-width="0.8695652484893799px">150</text><text style="text-anchor: middle; visibility: inherit; font-family: &quot;Helvetica Neue&quot;, sans-serif; font-size: 10.434782981872559px; font-weight: 200;" x="500.64708709716797" y="0" dx="0em" dy="0.95em" fill="rgb(50, 49, 63)" stroke="none" stroke-width="0.8695652484893799px">200</text><text style="text-anchor: middle; visibility: inherit; font-family: &quot;Helvetica Neue&quot;, sans-serif; font-size: 10.434782981872559px; font-weight: 200;" x="600.7765045166016" y="0" dx="0em" dy="0.95em" fill="rgb(50, 49, 63)" stroke="none" stroke-width="0.8695652484893799px">250</text><text style="text-anchor: middle; visibility: inherit; font-family: &quot;Helvetica Neue&quot;, sans-serif; font-size: 10.434782981872559px; font-weight: 200;" x="700.9059219360352" y="0" dx="0em" dy="0.95em" fill="rgb(50, 49, 63)" stroke="none" stroke-width="0.8695652484893799px">300</text><text style="text-anchor: middle; visibility: hidden; font-family: &quot;Helvetica Neue&quot;, sans-serif; font-size: 10.434782981872559px; font-weight: 200;" x="801.0353393554688" y="0" dx="0em" dy="0.95em" fill="rgb(50, 49, 63)" stroke="none" stroke-width="0.8695652484893799px">350</text></g><line x1="0" y1="0" x2="801.0353393554688" y2="0" fill="rgb(0, 0, 0)" stroke="rgb(204, 204, 204)" stroke-width="0.8695652484893799px"></line></g></g></g></g></svg>